<mxfile modified="2022-06-15T16:59:30.307Z" host="app.diagrams.net" agent="5.0 (Macintosh; Intel Mac OS X 10_15_7) AppleWebKit/537.36 (KHTML, like Gecko) Chrome/102.0.5005.61 Safari/537.36" etag="76eNFpAkaj3BWe8l97vT" version="20.0.1" type="github">
  <diagram id="Ht1M8jgEwFfnCIfOTk4-" name="Page-1">
    <mxGraphModel dx="1426" dy="921" grid="1" gridSize="10" guides="1" tooltips="1" connect="1" arrows="1" fold="1" page="1" pageScale="1" pageWidth="1169" pageHeight="827" math="0" shadow="0">
      <root>
        <mxCell id="0" />
        <mxCell id="1" parent="0" />
        <mxCell id="UEzPUAAOIrF-is8g5C7q-107" value="" style="rounded=0;whiteSpace=wrap;html=1;labelBackgroundColor=none;fillColor=none;dashed=1;container=1;pointerEvents=0;collapsible=0;recursiveResize=0;" parent="1" vertex="1">
          <mxGeometry x="360" y="1050" width="480" height="430" as="geometry" />
        </mxCell>
        <mxCell id="UEzPUAAOIrF-is8g5C7q-74" value="AWS Cloud" style="points=[[0,0],[0.25,0],[0.5,0],[0.75,0],[1,0],[1,0.25],[1,0.5],[1,0.75],[1,1],[0.75,1],[0.5,1],[0.25,1],[0,1],[0,0.75],[0,0.5],[0,0.25]];outlineConnect=0;gradientColor=none;html=1;whiteSpace=wrap;fontSize=12;fontStyle=0;shape=mxgraph.aws4.group;grIcon=mxgraph.aws4.group_aws_cloud_alt;strokeColor=#232F3E;fillColor=none;verticalAlign=top;align=left;spacingLeft=30;fontColor=#232F3E;dashed=0;labelBackgroundColor=#ffffff;container=1;pointerEvents=0;collapsible=0;recursiveResize=0;" parent="1" vertex="1">
          <mxGeometry x="70" y="840" width="780" height="650" as="geometry" />
        </mxCell>
        <mxCell id="UEzPUAAOIrF-is8g5C7q-75" value="AWS Cloud" style="points=[[0,0],[0.25,0],[0.5,0],[0.75,0],[1,0],[1,0.25],[1,0.5],[1,0.75],[1,1],[0.75,1],[0.5,1],[0.25,1],[0,1],[0,0.75],[0,0.5],[0,0.25]];outlineConnect=0;gradientColor=none;html=1;whiteSpace=wrap;fontSize=12;fontStyle=0;shape=mxgraph.aws4.group;grIcon=mxgraph.aws4.group_aws_cloud_alt;strokeColor=#232F3E;fillColor=none;verticalAlign=top;align=left;spacingLeft=30;fontColor=#232F3E;dashed=0;labelBackgroundColor=#ffffff;container=1;pointerEvents=0;collapsible=0;recursiveResize=0;" parent="1" vertex="1">
          <mxGeometry x="870" y="840" width="270" height="650" as="geometry" />
        </mxCell>
        <mxCell id="UEzPUAAOIrF-is8g5C7q-88" value="" style="edgeStyle=orthogonalEdgeStyle;rounded=0;orthogonalLoop=1;jettySize=auto;html=1;endArrow=open;endFill=0;strokeWidth=2;" parent="1" source="UEzPUAAOIrF-is8g5C7q-76" target="UEzPUAAOIrF-is8g5C7q-77" edge="1">
          <mxGeometry relative="1" as="geometry" />
        </mxCell>
        <mxCell id="UEzPUAAOIrF-is8g5C7q-89" value="" style="edgeStyle=orthogonalEdgeStyle;rounded=0;orthogonalLoop=1;jettySize=auto;html=1;endArrow=open;endFill=0;strokeWidth=2;" parent="1" source="UEzPUAAOIrF-is8g5C7q-77" target="UEzPUAAOIrF-is8g5C7q-79" edge="1">
          <mxGeometry relative="1" as="geometry">
            <Array as="points">
              <mxPoint x="268" y="1110" />
            </Array>
          </mxGeometry>
        </mxCell>
        <mxCell id="UEzPUAAOIrF-is8g5C7q-106" style="edgeStyle=orthogonalEdgeStyle;rounded=0;orthogonalLoop=1;jettySize=auto;html=1;endArrow=open;endFill=0;strokeWidth=2;" parent="1" source="UEzPUAAOIrF-is8g5C7q-77" target="UEzPUAAOIrF-is8g5C7q-78" edge="1">
          <mxGeometry relative="1" as="geometry" />
        </mxCell>
        <mxCell id="UEzPUAAOIrF-is8g5C7q-104" style="edgeStyle=orthogonalEdgeStyle;rounded=0;orthogonalLoop=1;jettySize=auto;html=1;endArrow=open;endFill=0;strokeWidth=2;" parent="1" source="UEzPUAAOIrF-is8g5C7q-78" target="UEzPUAAOIrF-is8g5C7q-84" edge="1">
          <mxGeometry relative="1" as="geometry" />
        </mxCell>
        <mxCell id="UEzPUAAOIrF-is8g5C7q-90" value="" style="edgeStyle=orthogonalEdgeStyle;rounded=0;orthogonalLoop=1;jettySize=auto;html=1;endArrow=open;endFill=0;strokeWidth=2;" parent="1" source="UEzPUAAOIrF-is8g5C7q-79" target="UEzPUAAOIrF-is8g5C7q-80" edge="1">
          <mxGeometry relative="1" as="geometry" />
        </mxCell>
        <mxCell id="UEzPUAAOIrF-is8g5C7q-91" value="" style="edgeStyle=orthogonalEdgeStyle;rounded=0;orthogonalLoop=1;jettySize=auto;html=1;endArrow=open;endFill=0;strokeWidth=2;" parent="1" source="UEzPUAAOIrF-is8g5C7q-80" target="UEzPUAAOIrF-is8g5C7q-81" edge="1">
          <mxGeometry relative="1" as="geometry" />
        </mxCell>
        <mxCell id="UEzPUAAOIrF-is8g5C7q-92" value="" style="edgeStyle=orthogonalEdgeStyle;rounded=0;orthogonalLoop=1;jettySize=auto;html=1;endArrow=open;endFill=0;strokeWidth=2;" parent="1" source="UEzPUAAOIrF-is8g5C7q-81" target="UEzPUAAOIrF-is8g5C7q-82" edge="1">
          <mxGeometry relative="1" as="geometry" />
        </mxCell>
        <mxCell id="UEzPUAAOIrF-is8g5C7q-93" style="edgeStyle=orthogonalEdgeStyle;rounded=0;orthogonalLoop=1;jettySize=auto;html=1;endArrow=open;endFill=0;strokeWidth=2;" parent="1" source="UEzPUAAOIrF-is8g5C7q-82" target="UEzPUAAOIrF-is8g5C7q-85" edge="1">
          <mxGeometry relative="1" as="geometry">
            <Array as="points">
              <mxPoint x="782" y="1240" />
            </Array>
          </mxGeometry>
        </mxCell>
        <mxCell id="UEzPUAAOIrF-is8g5C7q-105" value="Monitor template" style="edgeStyle=orthogonalEdgeStyle;rounded=0;orthogonalLoop=1;jettySize=auto;html=1;endArrow=open;endFill=0;strokeWidth=2;" parent="1" source="UEzPUAAOIrF-is8g5C7q-83" target="UEzPUAAOIrF-is8g5C7q-80" edge="1">
          <mxGeometry x="0.1208" y="-10" relative="1" as="geometry">
            <Array as="points">
              <mxPoint x="939" y="1030" />
              <mxPoint x="539" y="1030" />
            </Array>
            <mxPoint as="offset" />
          </mxGeometry>
        </mxCell>
        <mxCell id="UEzPUAAOIrF-is8g5C7q-101" value="" style="edgeStyle=orthogonalEdgeStyle;rounded=0;orthogonalLoop=1;jettySize=auto;html=1;endArrow=open;endFill=0;strokeWidth=2;" parent="1" source="UEzPUAAOIrF-is8g5C7q-84" target="UEzPUAAOIrF-is8g5C7q-83" edge="1">
          <mxGeometry relative="1" as="geometry" />
        </mxCell>
        <mxCell id="UEzPUAAOIrF-is8g5C7q-96" style="edgeStyle=orthogonalEdgeStyle;rounded=0;orthogonalLoop=1;jettySize=auto;html=1;endArrow=open;endFill=0;strokeWidth=2;startArrow=open;startFill=0;" parent="1" source="UEzPUAAOIrF-is8g5C7q-85" target="UEzPUAAOIrF-is8g5C7q-86" edge="1">
          <mxGeometry relative="1" as="geometry">
            <Array as="points">
              <mxPoint x="658" y="1320" />
              <mxPoint x="548" y="1320" />
            </Array>
          </mxGeometry>
        </mxCell>
        <mxCell id="UEzPUAAOIrF-is8g5C7q-97" style="edgeStyle=orthogonalEdgeStyle;rounded=0;orthogonalLoop=1;jettySize=auto;html=1;endArrow=open;endFill=0;strokeWidth=2;startArrow=open;startFill=0;" parent="1" source="UEzPUAAOIrF-is8g5C7q-85" target="UEzPUAAOIrF-is8g5C7q-87" edge="1">
          <mxGeometry relative="1" as="geometry">
            <Array as="points">
              <mxPoint x="704" y="1320" />
              <mxPoint x="879" y="1320" />
            </Array>
          </mxGeometry>
        </mxCell>
        <mxCell id="UEzPUAAOIrF-is8g5C7q-100" style="edgeStyle=orthogonalEdgeStyle;rounded=0;orthogonalLoop=1;jettySize=auto;html=1;endArrow=open;endFill=0;strokeWidth=2;" parent="1" source="UEzPUAAOIrF-is8g5C7q-86" target="UEzPUAAOIrF-is8g5C7q-98" edge="1">
          <mxGeometry relative="1" as="geometry" />
        </mxCell>
        <mxCell id="UEzPUAAOIrF-is8g5C7q-76" value="Object" style="outlineConnect=0;fontColor=#232F3E;gradientColor=none;fillColor=#277116;strokeColor=none;dashed=0;verticalLabelPosition=bottom;verticalAlign=top;align=center;html=1;fontSize=12;fontStyle=0;aspect=fixed;pointerEvents=1;shape=mxgraph.aws4.object;labelBackgroundColor=#ffffff;" parent="1" vertex="1">
          <mxGeometry x="110" y="900" width="78" height="78" as="geometry" />
        </mxCell>
        <mxCell id="UEzPUAAOIrF-is8g5C7q-77" value="Bucket" style="outlineConnect=0;fontColor=#232F3E;gradientColor=none;fillColor=#277116;strokeColor=none;dashed=0;verticalLabelPosition=bottom;verticalAlign=top;align=center;html=1;fontSize=12;fontStyle=0;aspect=fixed;pointerEvents=1;shape=mxgraph.aws4.bucket_with_objects;labelBackgroundColor=#ffffff;" parent="1" vertex="1">
          <mxGeometry x="230" y="900" width="75" height="78" as="geometry" />
        </mxCell>
        <mxCell id="UEzPUAAOIrF-is8g5C7q-78" value="Bucket" style="outlineConnect=0;fontColor=#232F3E;gradientColor=none;fillColor=#277116;strokeColor=none;dashed=0;verticalLabelPosition=bottom;verticalAlign=top;align=center;html=1;fontSize=12;fontStyle=0;aspect=fixed;pointerEvents=1;shape=mxgraph.aws4.bucket_with_objects;labelBackgroundColor=#ffffff;" parent="1" vertex="1">
          <mxGeometry x="1040" y="900" width="75" height="78" as="geometry" />
        </mxCell>
        <mxCell id="UEzPUAAOIrF-is8g5C7q-79" value="AWS&lt;br&gt;CloudTrail" style="outlineConnect=0;fontColor=#232F3E;gradientColor=#F34482;gradientDirection=north;fillColor=#BC1356;strokeColor=#ffffff;dashed=0;verticalLabelPosition=bottom;verticalAlign=top;align=center;html=1;fontSize=12;fontStyle=0;aspect=fixed;shape=mxgraph.aws4.resourceIcon;resIcon=mxgraph.aws4.cloudtrail;labelBackgroundColor=#ffffff;" parent="1" vertex="1">
          <mxGeometry x="390" y="1070" width="78" height="78" as="geometry" />
        </mxCell>
        <mxCell id="UEzPUAAOIrF-is8g5C7q-80" value="Amazon&lt;br&gt;CloudWatch" style="outlineConnect=0;fontColor=#232F3E;gradientColor=#F34482;gradientDirection=north;fillColor=#BC1356;strokeColor=#ffffff;dashed=0;verticalLabelPosition=bottom;verticalAlign=top;align=center;html=1;fontSize=12;fontStyle=0;aspect=fixed;shape=mxgraph.aws4.resourceIcon;resIcon=mxgraph.aws4.cloudwatch;labelBackgroundColor=#ffffff;" parent="1" vertex="1">
          <mxGeometry x="500" y="1070" width="78" height="78" as="geometry" />
        </mxCell>
        <mxCell id="UEzPUAAOIrF-is8g5C7q-81" value="Amazon Simple&lt;br&gt;Notification Service&lt;br&gt;" style="outlineConnect=0;fontColor=#232F3E;gradientColor=#F34482;gradientDirection=north;fillColor=#BC1356;strokeColor=#ffffff;dashed=0;verticalLabelPosition=bottom;verticalAlign=top;align=center;html=1;fontSize=12;fontStyle=0;aspect=fixed;shape=mxgraph.aws4.resourceIcon;resIcon=mxgraph.aws4.sns;labelBackgroundColor=#ffffff;" parent="1" vertex="1">
          <mxGeometry x="620" y="1070" width="78" height="78" as="geometry" />
        </mxCell>
        <mxCell id="UEzPUAAOIrF-is8g5C7q-82" value="Amazon Simple&lt;br&gt;Queue Service&lt;br&gt;" style="outlineConnect=0;fontColor=#232F3E;gradientColor=#F34482;gradientDirection=north;fillColor=#BC1356;strokeColor=#ffffff;dashed=0;verticalLabelPosition=bottom;verticalAlign=top;align=center;html=1;fontSize=12;fontStyle=0;aspect=fixed;shape=mxgraph.aws4.resourceIcon;resIcon=mxgraph.aws4.sqs;labelBackgroundColor=#ffffff;" parent="1" vertex="1">
          <mxGeometry x="743" y="1070" width="78" height="78" as="geometry" />
        </mxCell>
        <mxCell id="UEzPUAAOIrF-is8g5C7q-83" value="Amazon&lt;br&gt;CloudWatch&lt;br&gt;" style="outlineConnect=0;fontColor=#232F3E;gradientColor=#F34482;gradientDirection=north;fillColor=#BC1356;strokeColor=#ffffff;dashed=0;verticalLabelPosition=bottom;verticalAlign=top;align=center;html=1;fontSize=12;fontStyle=0;aspect=fixed;shape=mxgraph.aws4.resourceIcon;resIcon=mxgraph.aws4.cloudwatch;labelBackgroundColor=#ffffff;" parent="1" vertex="1">
          <mxGeometry x="900" y="1070" width="78" height="78" as="geometry" />
        </mxCell>
        <mxCell id="UEzPUAAOIrF-is8g5C7q-84" value="AWS&lt;br&gt;CloudTrail" style="outlineConnect=0;fontColor=#232F3E;gradientColor=#F34482;gradientDirection=north;fillColor=#BC1356;strokeColor=#ffffff;dashed=0;verticalLabelPosition=bottom;verticalAlign=top;align=center;html=1;fontSize=12;fontStyle=0;aspect=fixed;shape=mxgraph.aws4.resourceIcon;resIcon=mxgraph.aws4.cloudtrail;labelBackgroundColor=#ffffff;" parent="1" vertex="1">
          <mxGeometry x="1038.5" y="1070" width="78" height="78" as="geometry" />
        </mxCell>
        <mxCell id="UEzPUAAOIrF-is8g5C7q-85" value="AWS Lambda" style="outlineConnect=0;fontColor=#232F3E;gradientColor=#F78E04;gradientDirection=north;fillColor=#D05C17;strokeColor=#ffffff;dashed=0;verticalLabelPosition=bottom;verticalAlign=top;align=center;html=1;fontSize=12;fontStyle=0;aspect=fixed;shape=mxgraph.aws4.resourceIcon;resIcon=mxgraph.aws4.lambda;labelBackgroundColor=#ffffff;spacingTop=6;" parent="1" vertex="1">
          <mxGeometry x="619" y="1210" width="78" height="78" as="geometry" />
        </mxCell>
        <mxCell id="UEzPUAAOIrF-is8g5C7q-86" value="Amazon Kinesis&lt;br&gt;Data&amp;nbsp;Firehose" style="outlineConnect=0;fontColor=#232F3E;gradientColor=#945DF2;gradientDirection=north;fillColor=#5A30B5;strokeColor=#ffffff;dashed=0;verticalLabelPosition=bottom;verticalAlign=top;align=center;html=1;fontSize=12;fontStyle=0;aspect=fixed;shape=mxgraph.aws4.resourceIcon;resIcon=mxgraph.aws4.kinesis_data_firehose;labelBackgroundColor=#ffffff;" parent="1" vertex="1">
          <mxGeometry x="509" y="1350" width="78" height="78" as="geometry" />
        </mxCell>
        <mxCell id="UEzPUAAOIrF-is8g5C7q-87" value="Amazon&lt;br&gt;DynamoDB" style="outlineConnect=0;fontColor=#232F3E;gradientColor=#4D72F3;gradientDirection=north;fillColor=#3334B9;strokeColor=#ffffff;dashed=0;verticalLabelPosition=bottom;verticalAlign=top;align=center;html=1;fontSize=12;fontStyle=0;aspect=fixed;shape=mxgraph.aws4.resourceIcon;resIcon=mxgraph.aws4.dynamodb;labelBackgroundColor=#ffffff;" parent="1" vertex="1">
          <mxGeometry x="730" y="1350" width="78" height="78" as="geometry" />
        </mxCell>
        <mxCell id="UEzPUAAOIrF-is8g5C7q-98" value="Bucket" style="outlineConnect=0;fontColor=#232F3E;gradientColor=none;fillColor=#277116;strokeColor=none;dashed=0;verticalLabelPosition=bottom;verticalAlign=top;align=center;html=1;fontSize=12;fontStyle=0;aspect=fixed;pointerEvents=1;shape=mxgraph.aws4.bucket;labelBackgroundColor=#ffffff;" parent="1" vertex="1">
          <mxGeometry x="140" y="1350" width="75" height="78" as="geometry" />
        </mxCell>
        <mxCell id="UEzPUAAOIrF-is8g5C7q-108" value="" style="rounded=0;whiteSpace=wrap;html=1;labelBackgroundColor=none;fillColor=none;dashed=1;container=1;pointerEvents=0;collapsible=0;recursiveResize=0;" parent="1" vertex="1">
          <mxGeometry x="880" y="1050" width="250" height="430" as="geometry" />
        </mxCell>
        <mxCell id="T5dd_B_a8zItnUv9NhNJ-2" value="" style="shape=image;html=1;verticalAlign=top;verticalLabelPosition=bottom;labelBackgroundColor=#ffffff;imageAspect=0;aspect=fixed;image=https://cdn3.iconfinder.com/data/icons/inficons/128/github.png" vertex="1" parent="1">
          <mxGeometry x="513" y="230" width="128" height="128" as="geometry" />
        </mxCell>
        <mxCell id="T5dd_B_a8zItnUv9NhNJ-3" value="" style="shape=image;verticalLabelPosition=bottom;labelBackgroundColor=default;verticalAlign=top;aspect=fixed;imageAspect=0;image=data:image/png,iVBORw0KGgoAAAANSUhEUgAAAT4AAACfCAMAAABX0UX9AAABR1BMVEX///8AAADw1rfTODMzUGHg4OBta238/Pzo6OjWOTMjHyA4ODjw8PDU1NSlpaVcXFyBsMT35M333LxJcos/Pz8MDAyzs7OQkJCAgIDv7+/39/fwPTpjY2Pi397bOTQAAAwpKSkYHh8fGhvky653d3c/Y3nLy8sZFBXBrJSbm5tGRkZUVFQTHh8ICAjBwcFmZmYkIyU+IiNLQz3ANTEwSFYqNT40MDH/7dWzoIrpPDmuMy+RLiugMC3Su6FxZVlKJCRyKShXJiUxTFwuQU3p18J9c2qomozCs6Hfzrqhj3yLfGwyISKUhHNrKCgoKy+DKynQwK5mWlFWTEQeDxW6NDErFRkIHh8AExeYLy4gFxM8NTBxT0dVMjCFal2vloLIn4mSZ1vcvKIaKCx7gY1miJiCo7ZMY24fAAAzAABYeIYxDwtxdYBALS/6PkI2AAAV1UlEQVR4nO2daX/ayJaHqWC2woKYoAWMECowBYjdRnYcgxdid7zh2DftJO47PTO93J47ne//eqoklZCE8JJJ2m6j/68XSwgsPZxTZ6mSHAoFChQoUKBAgQIFChQoUKBAgQIFChQoUKBAj6FYnGsLKVES66lqNRJ77NP5WylfldJZCECL5/kWACiZlqr5xz6pv4uqog54jDBWAJXCY4x5UBIjj31ifwMtpxqIRxAi3D88ev/u7dv3P5yN+pBHiIeV3GOf3VOX0AAtTOAp+tHbzc0VQ5ubb98f6QpGIFt97PN70qrqADQksavcHK1Y7FYYwveHEGOQeuxTfLqKdHisCVw7DQ/f2twyLyxlVt6PEMLiY5/lE1VeBEATZE7ENz9susnZBI9KuCU99ok+SXE6yKbkqthQRqbZedkZ/IY6BoH9zUqAIF2VhUoDnM2FR/nVSogPxj+vUgCIxG87aXy06ee2Dn4kg2k/9uk+MXEYE3pSJzo5vsX0TH7HCoJBAu1UPg0qhF402hjdRY+kMCOMO0EN7FAbaFw7mm1k8VsHPT8XXtl89/6HLGoJj33KT0lRXit0SZnLH27a4x7h+P7dLL6jG1wqQZR97FN+OspLGGKgS3VBz25axpfZfHeoAHDoHfjeA0VRSFEHuMc+66eifAFA3EhxHNfWAHPdlfclXiGUhh58W8flcu2SBN8g+bMktiCocLIgRTsN8C7D6Ck3x7VabTbwkn8yWxhry4993k9DOQBbdVmIdqIk8AJrtFvRlRODlH/4JckfCHIXQymAo4SeoQZ4a+I5AiN/cEwjEMReqlgU622LXjSrWOZ2eFO+lV6mBiqPfeZPQvEG1uSKha90ZeE72Zpftpn8gPbYZ/4kFCnxktCx8KETi5rD9nzMsJZ5kdGzQeFBFMG8KFr0Crg22+IbzfDLnNUymctSEDuIRJ4XJQtfujT0klrZvGTJy/CM7TsavcgcoiBxDoUkkjKLbOjT+l5LI5Xb0aVlkUO9bO17C4aZMyWYNYpVAIRYsvFdef2U4HvbZ2EEmD+QfaNR5hhUFn7wq/AqPMUSc17t0gff5jEamvyu+qbzkqoDDreUhW/aS0Dtre+raQ1hrDf8rI+gyrzo3xhDYmZLoYG5dnjZR8qopkCw2JNGdV7thV/vqxDzCGGU7BRuPKGjfDU62zq7wWb0KPcVEnK3gKKgy/IWbSgs8qRHm0dwfXVbhfzN0Q8/nPAoGYWexGVI21OKYkUUQo7+9PPorEZ+5i8gai3upEcEoeaH1dVTlT9Z2SQ6UmA6eeLJ+2qjq6urEzsenyhXtI1AHDqz9XF7GyJ9UZO/fAE336yurqt4tLJyNjpe2exjLXvlwZfJlMvl6b6yrrDkb0vZKV408aKWbiJo7q2uru408buVEcTELclohvDtpW5mqINj45DMz8p2orivgvpjX8ijKALU0yLB96bZ33xbO+av8OEQYn10V6egxiMj+8uc/eNDIrHeQ91FLD5ixHW3V1dfF998vNxcyYwuM2fgRa3mrdl8+J0pCo0vmcMf18Ph4s71QrqvYLpuImHiI4VFWR9m7jA9k98J4Uf+d9ULU52rCzhnmW/g0/DqajGc2FF1gu+KGNTx7Q1Se/q3fAMovtJukdBLkNDTWLhFzyn+mkTd1/TyIX6XyZzV5k5rMKNz4DNaB2CP4guT6LtwyXNeR+pr4rr08nv8WebF8K5Br1yz6GXKx8Y0SE15Q99O+Pdw46+adOOEqeYfFalW49/1NMjI94a6Lr38i6b+9g52lJaZEBIX74OrobFO6IOBj37AX7bgqgKmmtfuiYnkxe86C51P416Cuq5hPae8Nal2W+SodUm1W66dKIC2r8iBox/XTXzhsOq3YgPM6BtEmPvgs475jvw4RMNuMcysB50ZA9/W2Xx+5ZvS5WUf4/7PZUJ5q1a+2bfghRN7qs+cL/898FVTqfod+LiW+TL//fxX4q/XLeOj6qnKqFYejsDVpi86I0veurq6PDke0v5VrX9Dhr4LZnyJbejjK9mSruvsUltkA30bD8/fgU9gr3+/XjhUd18z4yOX/2FXxagE+Zt3fgv7MocntWH5hdX6Kw+P+xjVMqOP2wmb/y7WZm6XiRHZHpyMxGLfKLtZfnR81RYNHPbFk+Fv/1pFELzfnMG3skJGvD4o9S9HhycnJ1vDfknBgObY19P3F/fUln/lZuP7dp50F74qe/27OW+dh+tT46P8itt7PQhml5VmVjI1klCf6UDheR4rlzUFKzdbmczxx/3pByQ+NFv+I/Uj4GOh47t1MvIFfLrqwkcIJD6p4P3sqtwVkqDQwLE16usliC6Hev+MOnK/uTP13TBJ/fwL38fAl5do4Ph+0wg5qJ47Aoc9/itHbGlk2V6hQbZPrspGf7Q8pB0FGndpr6+37nz3nlryvVfwMfAZyfV3bOJy4HrHY3xG/KVtU8v8nFMemaubrXKGycTb//jGYXzhxJsm9o2r/298s4zuge/hH/oQpUBzfTXhpVfca+rv2MLcE+eM2/BG6Y/Otojt1WpbRgg+4Xse0236t13m4ouk6NxyRUrdxrUqVjqdiucm4tvxLeeZlv0hRYzPlGa+7Fi1LlUq0UpFqgu333Rb4U/Dq156tHdAvdcyr5vDaQadGerGfBE9Z1im24q648Hf9K+S/PEt17vAVnJ6JdJ0Lx8JtUtsQ3MC9OCLTN8D3Ftm7BAceyIhLs1+LrkAch3gklafj1DD+6+9Qx/ld/Gxz7w3U1OcC9TKJ1c3un7TvzTCRvmKlHwe0z3FBb9v2xdfO2nsw9ms+WKanao4PX89XndcDe/gd298qVl8VeTYcrgL+8V6Q2tYX9rcrDHfIJFjdugjgvgHO/aeudZakeRvSFLnjNmlV+Cu5/3FXTXrlxb74bMuKMnl85aBJS1+QrqgWW/IOukB4OgoevDFtTT9FpIaEdlKFzrMsk18VbIHM2DuQtI+p5S5rRl9mni7cSu+eLJ5MTv0UQbnHy/t4JE5VGbXqhkv/IwhVPfCCfdbVXRPfBY9c3Vb1UsnMr3CChfL1+0rn4fPvIHbudCV+ee0CZm1P7PQjuUt45++yTJZzT6J6G34IjrB50MvEe5BZWp+L0bIj19mCyIIYdPNj9Qd4H74Il3XuVtVsT1wTvGZQ1eKmd9cfBzvSZFvwVcwzpHVJeykRM85hHLJW/Bx3eYnn8iR2OmpEF85Ko9LcOLtQGfKIwXBtQ0Em/tOfiRzAX6D7Sy+jvvi2KjD+q02PuSG1bJHVg8+AXhbOfPxYXMIjbEjqq43OGKfdAu+KmzuzESOxIf9LkQI4kMHv0PlquYEmCmf6RhO1l69WiL+u/thyi/xqelbY87gy7E9Vo3MRnZmPzY+a0c+6z7ei48Mkd5e7Xx8rDJiXUMLuzXeNqYX0G405s6+VuG1F18xvAdV9Hm8BJFysrKZYfFiCyujmpEs0/8Mz3RienBw8IrwQ1DtTfkldpq+t3nM4GPOyMytza4s78Fnfft5BsNm5MJXd4K9Ex8r5JjJ1134QDZ1n6YQxecKnInwGwKvu0GorHUhj87e0xibKR9fXl6WsNI9IRlzbWukK/ThLlBV0eSVaX9Nu2dFre9e+Ox2ccyNj72b4eMtKLGC21Jc+GId4NOEnY+PHcrwSe43EJXqd86SEOf95MCXSGzvqgiOiUtSfhCiLrq5Gp2cXSofP6qQPg1H4TFNm+EXggzu7kO0YR4JTxk/Ovbdx3mX2TcN2Mmw7aobXzdyJ77QctT4v/f3zsfHxjMPPke6SaR3bjdCrtR842g2hfea6ueBCY/o4DOfqqakqDbhTz/tnMNrQvDLT73eP//j5//8L3R9Hl5d3b4eLJHj1yZIhexTLprAb7bNiy9nVxIpU3ahIbrxle7Eh+PWV+FNOOfjY27uwRcHXom3mCBNXIo2vO0e8dslBm9taWnchQIlkQI7q6urr7fPicX9VPvv8ovyTx97dFnH63BvckD5vZpA1rYiiQt/n8QlDmdO1VL0ofhauuetX41vOiDbumXZYjyr7ln4iusEzufJ2hQe0cakpdXlfBQnVg2F96+b//jn5egG7xXNqeFzdYMcR/2X1b7FfbV0L3xo5kwtaQ/F55B7lv7h+Hz43dLqb6j7zG+Ja6IDJzsLIHGJErTmgYurH/ZJmN07VcPGuoRw8cLAt7RG8Fldv2IPa/fCZztvlXPLEzrugy/F+V7rV+ALLYtJ4Baaiy+Nd82rPm9CZJmeAx7VeEJyQFbZFYkLN4uvt9X9ve2iGSc2TMywx8wY4uh9WgbLDbZnTs/tAfhSZt5ifLwz6n8NPjIqc1LDNbLMNT+Jh2bGRuiZMWNt6WDJo43JFB8Z/66LxSLcN1v8JMkz8Q2abLJyvdnynVvw4psmLnOi2wPGProRtTYajo/4OnzGL287WmZz1+0IwErYVDjwsTxmgMjuKxSLb+AOgbb3miV5Ju0JtBIX8hp/v3ap3UhxJrsR4ryetPke1kftN898zkHiwfjIr7d9IW+f4NyppgiwrGZXhXPpEc9MTGeCw7u98x95UuZSFS9+MfAddK1BgOYt0LfKmcFnN+QcX24sS/t7X4XPXlPgyJ4fjE9z9ROZQc/Fl0uq5tK8CxXRlMUf38Ev2za+4ifEJyVJb6HdvYudT7sDE7AdwUks1n0Hsxl89qU4so24w3oeim/aDrW/vgfjSztKwukHznXeWAVDajaJbTL2zTe/AcsOE+ELHK1WZbnaSardwaCJTHyDa+a766e44PurZvGxMqM7/cLpeMi2HozPZmEnTl+Dz7HEiSUx8+fqUi0rX+tBtDYX37jH6J1/xFJcjoeW5Tb+9eXL3wZobAx9p8y3t6/nrP+ZxWdPaNi86fna7U4bH3sDa3DZn8/WuLTYDlYHss+Yj48R8al5p90q1n+ZSy8Ub6l7hk9eNGn5OgffwTVlTOqS09PoKRDkUDIa4sDvL4m6E8N3WdwtnqtzHgnmg88Ovlo1R2yJo5tmGzMkVCRGi49WpHwoVamw2kKTKvUYOaJix+5KhQ4Aomjv6IhipFKRStN3ED4c2cMSko5UiYTaFYllT1mpUslbvLVqPEbTFwv+rY84yyLDcBIfupB2T2ayFlO/nBPv3dnHX357+ecfDS5UqZNh6qWBj1rfmMVdusig45+I+OGL2SV6o9AxrqSTc1uFRTBnD+MWj7xrfR8w+g4l5zYSgPcAz56q55fQBMqyt2S6U2Bg8a03W6TA9Sfj0vdVuDYTOxjNMdzbh9dYo8A0UKeAIga+f00M32VzvYkddd5A64ePfIqLQtr2Swm4lAu5pw998XWd2/xX4UtpLfe+ZP32xl9EN+s2ksHRms3tvYMx+2miqvBz1LC33//IyqF8qPoH+fk3SAEf2HE3se8/0eHA1/B08nNtKa01Glq6kopPQ3Yu4lIsFHdtx2eOIO9xl37LEe8BefeOvM9HhPLLcUGspDWtodEzitzZNSWx1/S8axp73fgmA7Z9MB53Gy9Naa16Liq0/4f8ODYC79iOux+ucXTO77Et7O9x68J9V29wQDUWmNEJxhl84+mOAfzdwvf7aZKLCkLv5ct/d82RkeXMJOlz58zL8bjV+7NXgj63J+ak8TWte8mw9dk7+DnwHaAvL5k0ICyH6sQYJ4Zzk5yZGR/0JH2pUslK2e2WyHO78aOKzdFvvUdTF/fYd2DjGyPU+5WZ3x+FeCj6bytuLA3YRAe9qdLdnSBlo7Viw+6jPbsn3RewkToT7x148S1NnXcC0ecvv5oO3IBC6PK336DRbTnoQqPuS4R3VOx5ogatuo0h2Z7ZeH6PPCCjX8+MvZM19+A3duBbGncR+iP7J8X3ayua034bmAXbWD0vJorhnb39U4g9FQfF16BBj6UZ3WdnfPSZh00yeiXWr+Ft+MzOKf7fArHAL7je+FfX6lWp2ySjvm6qPOCRZ2hzr+5xzT8/H+UhUunwdYpux0cBQoRPG38WsP6lO7YGxd7FrqrSP+DRFnXsjryc5mzblsS/R9LyULWx2ltPhPedseNg7B77LG0MuoTgZwjR4GBjYzwmm1BVMdBFyi2itzruj44L9U6yi0vZQr39POGFaImp7icSF87YcdCdHEw2THwHhBRFRTSZEF6GuuwH2EpWqmypAPKZI48Z98U8Y+U13LwovlEnjtA7Rl1Iqg4TGcKYVIMtKh5jxMAhnkcQmVPJOVrhxBrPLrG7j+I6vn6zQzv2tu8OKKTP9O86AaxrnYpYr9dT5F9RimYhQt3JoIsaKUEDIrGsiKTXjfpC+rtUZd9W1S6Ce3Batg26XWp0yUZHFCLx3HLe4X15TtDHr169GtA7YKqgshwS9IrVFasCtJBPw2kD+hex7NC7tkabz3P61HI1S/Ft4Gw8FNO1eF6w420cLuhjdAVIhrFpqKX4XvmXWDG52qD4lj6XCDZRr9JVhFktmlqm5QWf/qvP/GlIAAh5MhX/p0LGZE4br60tbSBMXhdoqREnDm6MeXmJ959pe/6qInTgxvfR1xFjslz4hYYXRB21av69HStgLNdbpedYWtxHDbzhxveL7w1CBF+U4lsybh2P4Ho+JEQLhUqdjJSy0PK/JXABVMBjN76Bb3OT4KsY+Lq0t5yDtBaL5XO5eDyUlwWg/9Wn/VRUmcHX8TuM4JNU+vKEPjdjWY/KRPF4PJdbjsv1xX2EuIQHnp7B7IMJQgY+UT0w8PF5WdY1mYnj5MqCPoYuRNerefBt+D8RUpbrmOIbQMDJ8WRSEFK0Hqm3ZVlAi5k2U4n8ZM2F7wD7Zi6ynLLwtVJCgdTDGKFkupLiZCH7DPvJ91W9BSdjJ74l/xKCGBlv4EOQVMSNTiUNdLHdTolRRFcELKpIwQpR1wlQ9Q29stwGB0sHGwOINHNBF1tDUYouatIXoiWD8begHRY48V1eFJc5MJh0uxDZN5xFqmT8E7j4glYcljixBDBENsAB9jsqzskA86TG059p+/3rFUtptPfSHWzQ0W3se4MVwYc1UdAWOEzM13KKWiAlOBgPfG+qIfhgilRuC/+g/zlqp1stkowQ8X5JcI6TdYJPDKxvjvIRUdMhIeh7j8syJyfrJHsBvjVdIEPxarsqAt0njyOVWkMkJdrMYr1AbkWw39/vJPg0ieDLBn+j6HblNL8OQEyW0xVZljsLOq9xf4nA7zYNQq5D8ElB7LhDbd9HnslyJW3gC2LH7YoBv6ZLXJYanCBmn91S22+utF9unJPFFsZ8Kwgdd0kAPg+yXpZTPELdQkDvLkV0n7KX4EOAC9oF91B6JnXJx2W5rQPfowN5lAJJUXAYIIUnc3X9+a2R/y7KIbpGjdekVLtarbaFVF1K6y2MAnz3UkzCPI/N9ZE8pvGW/rcFF3EZ5FeJEyTNdbdnqVGoL+x05Ncols/HuWq73a5yHH2i72JPaQQKFChQoECBAgUKFChQoECBAgUKFChQoECBHlH/ByC11RkN60odAAAAAElFTkSuQmCC;" vertex="1" parent="1">
          <mxGeometry x="770" y="490" width="318" height="159" as="geometry" />
        </mxCell>
        <mxCell id="T5dd_B_a8zItnUv9NhNJ-5" value="" style="shape=image;verticalLabelPosition=bottom;labelBackgroundColor=default;verticalAlign=top;aspect=fixed;imageAspect=0;image=https://images.velog.io/images/minj10092/post/d80b13ab-480d-4f52-9e75-a896fbb07974/feature-image.png;" vertex="1" parent="1">
          <mxGeometry x="82" y="520" width="283.64" height="120" as="geometry" />
        </mxCell>
        <mxCell id="T5dd_B_a8zItnUv9NhNJ-6" style="edgeStyle=orthogonalEdgeStyle;rounded=0;orthogonalLoop=1;jettySize=auto;html=1;endArrow=open;endFill=0;strokeWidth=2;exitX=0.25;exitY=1;exitDx=0;exitDy=0;" edge="1" parent="1" source="T5dd_B_a8zItnUv9NhNJ-2" target="T5dd_B_a8zItnUv9NhNJ-5">
          <mxGeometry relative="1" as="geometry">
            <mxPoint x="276.9917274384684" y="909" as="sourcePoint" />
            <mxPoint x="1012.0082725615316" y="909" as="targetPoint" />
          </mxGeometry>
        </mxCell>
        <mxCell id="T5dd_B_a8zItnUv9NhNJ-9" value="" style="shape=singleArrow;direction=south;whiteSpace=wrap;html=1;" vertex="1" parent="1">
          <mxGeometry x="540" y="90" width="60" height="100" as="geometry" />
        </mxCell>
      </root>
    </mxGraphModel>
  </diagram>
</mxfile>
